<?xml version="1.0" encoding="UTF-8"?>
<svg id="Layer_1" data-name="Layer 1" xmlns="http://www.w3.org/2000/svg" xmlns:xlink="http://www.w3.org/1999/xlink" viewBox="0 0 724.1 180.2">
  <defs>
    <style>
      .cls-1 {
        filter: url(#drop-shadow-10);
      }

      .cls-2 {
        fill: #fff;
      }

      .cls-3, .cls-4, .cls-5, .cls-6, .cls-7, .cls-8, .cls-9 {
        fill: #7895cb;
      }

      .cls-10 {
        filter: url(#drop-shadow-8);
      }

      .cls-10, .cls-11, .cls-12, .cls-13 {
        fill: #a4bc92;
      }

      .cls-11 {
        filter: url(#drop-shadow-7);
      }

      .cls-4 {
        filter: url(#drop-shadow-3);
      }

      .cls-14 {
        filter: url(#drop-shadow-11);
      }

      .cls-12 {
        filter: url(#drop-shadow-9);
      }

      .cls-5 {
        filter: url(#drop-shadow-6);
      }

      .cls-6 {
        filter: url(#drop-shadow-5);
      }

      .cls-7 {
        filter: url(#drop-shadow-1);
      }

      .cls-8 {
        filter: url(#drop-shadow-4);
      }

      .cls-9 {
        filter: url(#drop-shadow-2);
      }
    </style>
    <filter id="drop-shadow-1" filterUnits="userSpaceOnUse">
      <feOffset dx="2" dy="2"/>
      <feGaussianBlur result="blur" stdDeviation="4"/>
      <feFlood flood-color="#333232" flood-opacity=".2"/>
      <feComposite in2="blur" operator="in"/>
      <feComposite in="SourceGraphic"/>
    </filter>
    <filter id="drop-shadow-2" filterUnits="userSpaceOnUse">
      <feOffset dx="2" dy="2"/>
      <feGaussianBlur result="blur-2" stdDeviation="4"/>
      <feFlood flood-color="#333232" flood-opacity=".2"/>
      <feComposite in2="blur-2" operator="in"/>
      <feComposite in="SourceGraphic"/>
    </filter>
    <filter id="drop-shadow-3" filterUnits="userSpaceOnUse">
      <feOffset dx="2" dy="2"/>
      <feGaussianBlur result="blur-3" stdDeviation="4"/>
      <feFlood flood-color="#333232" flood-opacity=".2"/>
      <feComposite in2="blur-3" operator="in"/>
      <feComposite in="SourceGraphic"/>
    </filter>
    <filter id="drop-shadow-4" filterUnits="userSpaceOnUse">
      <feOffset dx="2" dy="2"/>
      <feGaussianBlur result="blur-4" stdDeviation="4"/>
      <feFlood flood-color="#333232" flood-opacity=".2"/>
      <feComposite in2="blur-4" operator="in"/>
      <feComposite in="SourceGraphic"/>
    </filter>
    <filter id="drop-shadow-5" filterUnits="userSpaceOnUse">
      <feOffset dx="2" dy="2"/>
      <feGaussianBlur result="blur-5" stdDeviation="4"/>
      <feFlood flood-color="#333232" flood-opacity=".2"/>
      <feComposite in2="blur-5" operator="in"/>
      <feComposite in="SourceGraphic"/>
    </filter>
    <filter id="drop-shadow-6" filterUnits="userSpaceOnUse">
      <feOffset dx="2" dy="2"/>
      <feGaussianBlur result="blur-6" stdDeviation="4"/>
      <feFlood flood-color="#333232" flood-opacity=".2"/>
      <feComposite in2="blur-6" operator="in"/>
      <feComposite in="SourceGraphic"/>
    </filter>
    <filter id="drop-shadow-7" filterUnits="userSpaceOnUse">
      <feOffset dx="2" dy="2"/>
      <feGaussianBlur result="blur-7" stdDeviation="4"/>
      <feFlood flood-color="#333232" flood-opacity=".2"/>
      <feComposite in2="blur-7" operator="in"/>
      <feComposite in="SourceGraphic"/>
    </filter>
    <filter id="drop-shadow-8" filterUnits="userSpaceOnUse">
      <feOffset dx="2" dy="2"/>
      <feGaussianBlur result="blur-8" stdDeviation="4"/>
      <feFlood flood-color="#333232" flood-opacity=".2"/>
      <feComposite in2="blur-8" operator="in"/>
      <feComposite in="SourceGraphic"/>
    </filter>
    <filter id="drop-shadow-9" filterUnits="userSpaceOnUse">
      <feOffset dx="2" dy="2"/>
      <feGaussianBlur result="blur-9" stdDeviation="4"/>
      <feFlood flood-color="#333232" flood-opacity=".2"/>
      <feComposite in2="blur-9" operator="in"/>
      <feComposite in="SourceGraphic"/>
    </filter>
    <filter id="drop-shadow-10" filterUnits="userSpaceOnUse">
      <feOffset dx="1" dy="1"/>
      <feGaussianBlur result="blur-10" stdDeviation="3"/>
      <feFlood flood-color="#303030" flood-opacity=".5"/>
      <feComposite in2="blur-10" operator="in"/>
      <feComposite in="SourceGraphic"/>
    </filter>
    <filter id="drop-shadow-11" filterUnits="userSpaceOnUse">
      <feOffset dx="1" dy="1"/>
      <feGaussianBlur result="blur-11" stdDeviation="3"/>
      <feFlood flood-color="#303030" flood-opacity=".5"/>
      <feComposite in2="blur-11" operator="in"/>
      <feComposite in="SourceGraphic"/>
    </filter>
  </defs>
  <path class="cls-7" d="m12.6,131c-1.7-1.7-2.5-3.8-2.5-6.3V19.1c0-2.5.8-4.7,2.5-6.3,1.7-1.7,3.8-2.5,6.3-2.5s4.7.8,6.5,2.5c1.8,1.7,2.7,3.8,2.7,6.3v47.1l66-9.2V19.1c0-2.5.9-4.7,2.6-6.3,1.7-1.7,3.9-2.5,6.4-2.5s4.5.8,6.3,2.5c1.8,1.7,2.7,3.8,2.7,6.3v105.7c0,2.3-.9,4.4-2.7,6.2s-3.9,2.7-6.3,2.7-4.7-.9-6.4-2.6c-1.8-1.7-2.6-3.8-2.6-6.3v-50l-66,9.2v40.8c0,2.4-.9,4.5-2.7,6.3-1.8,1.8-4,2.6-6.5,2.6s-4.7-.9-6.3-2.6Z"/>
  <path class="cls-9" d="m190.7,133.4c-1.5-1.3-2.3-3.1-2.3-5.3v-2.5c-5,5.3-11.8,8-20.7,8s-12.6-1.6-17.9-4.9c-5.3-3.3-9.5-7.9-12.5-13.9-3-6-4.5-12.8-4.5-20.4s1.8-16.6,5.4-24.6c3.6-7.9,8.7-14.3,15.3-19.3,6.6-5,14.2-7.4,22.7-7.4s10.6.8,15,2.3c4.5,1.5,9.1,3.4,14,5.5v75.4c0,2.4-.8,4.5-2.5,6.3-1.7,1.8-3.7,2.7-6.2,2.7s-4.4-.7-5.9-2Zm-11.4-18.9c3.3-1.5,6.1-3.2,8.2-5.3l.5-47.3c-3.5-1.5-7.3-2.2-11.4-2.2s-9.8,1.6-13.8,4.8c-4,3.2-7.1,7.4-9.2,12.7-2.2,5.3-3.3,10.8-3.3,16.8s1.6,13,4.9,16.9c3.3,3.9,7.9,5.8,13.8,5.8s6.9-.7,10.2-2.2Z"/>
  <path class="cls-4" d="m272.7,42.8c-10.3,0-18.4,4.8-24.3,14.5v-5.4c0-2.4-.9-4.5-2.6-6.2-1.8-1.7-3.8-2.5-6.3-2.5s-4.5.8-6.3,2.5c-1.8,1.7-2.6,3.7-2.6,6.2v73.4c0,2.2.9,4.1,2.7,5.8,1.8,1.7,3.9,2.5,6.2,2.5s4.2-.8,6-2.5c1.8-1.7,2.7-3.6,2.7-5.8l.2-34.4c0-4.4.4-8.1,1.2-11.2.8-3.1,2.4-6.3,5-9.4,1.8-2.4,4.1-4.7,7-6.9,2.8-2.2,5.3-3.3,7.5-3.3s4,1,4,2.9v2.4c0,2.4.7,4.5,2.1,6.2,1.4,1.7,3.5,2.5,6.4,2.5s4.4-.8,6.1-2.4c1.6-1.6,2.4-3.7,2.4-6.1v-5.4c0-4.7-1.4-8.8-4.1-12.1-2.7-3.4-7.2-5.1-13.3-5.1Z"/>
  <path class="cls-8" d="m303.7,55.9v69.2c0,2.3.9,4.3,2.6,6,1.7,1.7,3.8,2.5,6.1,2.5s4.5-.8,6.2-2.5c1.7-1.7,2.5-3.7,2.5-6l-.2-26.6c0-4.4.5-8.3,1.5-12,.8-3,2.1-6,3.7-9-5.2-3.3-9.9-7.1-14.1-10.5-3.6-3.1-6.2-7-8.4-11.1Z"/>
  <path class="cls-6" d="m407.1,102v23.1c0,2.3.8,4.3,2.5,6,1.7,1.7,3.7,2.5,6.2,2.5s4.3-.8,6.1-2.5c1.8-1.7,2.6-3.7,2.6-6v-7.5c-5-6-10.8-11.2-17.4-15.6Z"/>
  <g>
    <path class="cls-5" d="m357.4,125.1c0,2.3.9,4.3,2.6,6,1.8,1.7,3.8,2.5,6.1,2.5s4.5-.8,6.2-2.4c1.7-1.6,2.5-3.7,2.5-6.1v-33.7c0-.8,0-1.6,0-2.4-5.6-1.1-11.4-1.8-17.5-2v38.1Z"/>
    <path class="cls-11" d="m424.5,117.6v-40c0-11.5-2.2-20.1-6.5-25.8-4.4-5.7-10.3-8.6-17.8-8.6-11.1,0-20.5,5.8-28.3,17.4-1.6-5.8-4.2-10.1-7.9-13.1-3.7-2.9-8-4.4-13-4.4-12.4,0-22.4,7.1-29.9,21.4v-12.7c0-2.3-.8-4.3-2.5-6.1-1.7-1.7-3.7-2.6-6.2-2.6s-4.3.9-6.1,2.6-2.6,3.8-2.6,6.1v4c2.2,4.1,4.8,8,8.4,11.1,4.2,3.5,8.9,7.2,14.1,10.5.3-.6.7-1.3,1.1-1.9,2.8-4.4,6-8.1,9.8-11.1,3.7-3.1,7.6-4.6,11.4-4.6s5.4,1.3,6.8,4c1.4,2.7,2.1,6.9,2.1,12.7v10.5c6,.2,11.9.8,17.5,2,.3-4.9,1.4-9.4,3.3-13.5,2.2-4.8,5.1-8.6,8.6-11.4,3.5-2.8,7-4.2,10.5-4.2s5.9,1.4,7.4,4.2c1.6,2.8,2.4,6.9,2.4,12.5v25.5c6.6,4.4,12.4,9.6,17.4,15.6Z"/>
  </g>
  <path class="cls-10" d="m544.4,131.1c-1.8-1.7-2.6-3.6-2.6-5.8V51.7c0-2.4.9-4.5,2.7-6.2,1.8-1.7,3.9-2.5,6.3-2.5s4.3.8,5.9,2.5c1.6,1.7,2.4,3.7,2.4,6.2v13.8c3.4-7.3,7.7-12.8,12.9-16.6,5.2-3.8,10.9-5.7,17-5.7s12.1,1.6,16.1,4.7c4,3.1,6.9,8.3,8.7,15.5,1.8,7.2,2.7,17.1,2.7,29.8l-.2,31.7c0,2.3-.8,4.3-2.4,6.1-1.6,1.8-3.6,2.6-6,2.6s-4.3-.9-6.1-2.6c-1.8-1.7-2.6-3.7-2.6-5.9v-30.1c0-9.4-.4-16.7-1.3-21.8-.8-5.1-2.1-8.5-3.8-10.4-1.7-1.9-4-2.8-6.9-2.8s-7.3,1.5-10.9,4.6c-3.6,3.1-7,7.5-10.2,13.1-2.8,5-4.7,9.8-5.8,14.5-1.1,4.7-1.6,10.4-1.6,17v15.2c0,2.7-.8,4.8-2.3,6.5-1.5,1.7-3.6,2.5-6.3,2.5s-4.3-.8-6.1-2.5Z"/>
  <path class="cls-12" d="m647,163.4c-1.6-1.8-2.4-3.8-2.4-6.3s.3-2.4.9-3.8l15.8-33.9-32.4-63.3c-.7-1.4-1.1-2.9-1.1-4.4,0-2.4.9-4.5,2.6-6.3,1.7-1.7,3.9-2.6,6.4-2.6s3.6.5,5.1,1.6,2.5,2.4,3.3,3.8l25.6,50.6,22.8-50.6c.7-1.6,1.8-2.9,3.4-4,1.5-1.1,3.2-1.6,5-1.6s4,.8,5.6,2.5c1.6,1.7,2.4,3.8,2.4,6.3s-.2,2.7-.7,3.6l-48.4,105.1c-.7,1.7-1.8,3.1-3.3,4.1-1.4,1-3.1,1.5-4.9,1.5s-4.1-.9-5.6-2.6Z"/>
  <g>
    <g class="cls-1">
      <path class="cls-13" d="m499.3,114.4c-1.8-6.7-8.8-10.8-15.6-9.1-2.4.6-4.6.9-7,.7-2.3.1-4.8-.4-7.4-1.4-2.6-1.1-4.9-2.4-6.8-4-2-1.7-3.8-3.7-5.1-6.1h-.1c-.3-.6-.5-1.1-.9-1.6v-.4c-.4-.5-.6-1.1-.9-1.6l-.5-1.2-.6-2c0-.2-.1-.4-.1-.6l-.3-1.2c-.1-.4-.1-.7-.3-1.4,0-.6-.1-1.2-.1-1.7v-1.1c0-1.1,0-2.2.1-3.5.4-3,1.1-5.8,2.4-8.4,1.4-2.7,3.1-5.3,5.3-7.6h.1c.1-.2.4-.5.5-.6.1-.1.2-.2.3-.3,0,0,0,0,0,0,.1-.2.3-.3.4-.4,0,0,0,0,0-.1,0,0,0,0,0,0,0,0,0,0,0,0,0,0,0,0,0-.1,0,0,0,0,0-.1,0,0,0,0,0,0,0,0,0-.1,0-.1.4-.3.8-.8,1-1.2.2-.5.4-1,.5-1.5.1-1.1,0-2.2-.6-3.1,0,0,0,0,0,0,0,0,0,0,0-.1-.4-.4-.8-.8-1.3-1.2,0,0,0,0,0,0-.6-.2-1.2-.4-1.8-.5,0,0,0,0,0,0,0,0,0,0,0,0,0,0,0,0-.1,0,0,0,0,0-.1,0,0,0,0,0,0,0-.3,0-.6,0-.9,0-.3,0-.5,0-.8.1-.5.1-1.1.3-1.5.7,0,0,0,0-.1,0,0,0,0,0,0,0,0,0,0,0,0,0,0,0,0,0,0,0,0,0,0,0,0,0,0,0,0,0,0,0,0,0,0,0,0,0,0,0,0,0,0,0,0,0,0,0-.1,0,0,0,0,0,0,0-.2.1-.4.3-.6.4-.3.2-.6.4-.9.6-3.4,2.5-6.4,5.5-8.9,8.9-2.5,3.4-4.4,7.3-5.8,11.6-.6,2-1,4-1.5,6.5-.1,1.1-.3,2.2-.3,3.4v5l.5,4.2v.7c.4,1.1.6,2.2.9,3.4.4,1.1.8,2.2,1.1,3.4,1.6,4.3,3.9,8.3,6.8,12,2.8,3.6,6.4,6.7,10.5,9.4,4.3,2.7,8.8,4.7,13.3,5.8,4.8,1.2,9.8,1.7,14.9,1.4h1c.8,0,1.6-.1,2.4-.4,3.3-.9,6-3,7.8-5.8,1.8-2.9,2.3-6.3,1.4-9.6Z"/>
      <ellipse class="cls-2" cx="488.9" cy="115.6" rx="5.3" ry="5.3"/>
    </g>
    <g class="cls-14">
      <path class="cls-3" d="m470.2,55c1.9,6.7,9,10.7,15.7,8.8,2.4-.7,4.6-.9,7-.9,2.3-.2,4.8.3,7.4,1.2,2.7,1.1,4.9,2.3,6.8,3.9,2,1.7,3.8,3.7,5.2,6h.1c.3.6.5,1.1.9,1.6v.4c.4.5.7,1.1.9,1.6l.5,1.2.7,2c0,.2.1.4.1.6l.3,1.2c.1.4.1.7.3,1.4,0,.6.1,1.2.2,1.7v1.1c0,1.1,0,2.2,0,3.5-.3,3-1,5.9-2.2,8.5-1.3,2.8-3.1,5.4-5.1,7.7h-.1c-.1.3-.4.5-.5.6-.1.1-.2.2-.3.3,0,0,0,0,0,0-.1.2-.3.3-.4.4,0,0,0,0,0,.1,0,0,0,0,0,0,0,0,0,0,0,0,0,0,0,0,0,.1,0,0,0,0,0,.1,0,0,0,0,0,0,0,0,0,.1,0,.1-.4.3-.7.8-1,1.3-.2.5-.4,1-.4,1.5-.1,1.1.1,2.2.7,3.1,0,0,0,0,0,0,0,0,0,0,0,.1.4.4.8.8,1.3,1.1,0,0,0,0,0,0,.6.2,1.2.4,1.8.5,0,0,0,0,0,0,0,0,0,0,0,0,0,0,0,0,.1,0,0,0,0,0,.1,0,0,0,0,0,0,0,.3,0,.6,0,.9,0,.3,0,.5,0,.8-.1.5-.1,1.1-.3,1.5-.7,0,0,0,0,.1,0,0,0,0,0,0,0,0,0,0,0,0,0,0,0,0,0,0,0,0,0,0,0,0,0,0,0,0,0,0,0,0,0,0,0,0,0,0,0,0,0,0,0,0,0,0,0,.1,0,0,0,0,0,0,0,.2-.1.4-.3.6-.4.2-.3.6-.4.9-.6,3.3-2.5,6.3-5.6,8.8-9.1,2.5-3.4,4.3-7.4,5.6-11.6.6-2,.9-4,1.4-6.5.1-1.1.2-2.2.2-3.4v-5c0,0-.7-4.2-.7-4.2v-.7c-.4-1.1-.7-2.2-.9-3.3-.4-1.1-.8-2.2-1.2-3.3-1.7-4.3-4-8.3-7-11.9-2.8-3.6-6.5-6.6-10.7-9.3-4.3-2.7-8.9-4.6-13.4-5.6-4.8-1.2-9.8-1.6-15-1.1h-1c-.8,0-1.6.2-2.4.4-3.2.9-6,3.1-7.7,6-1.7,2.9-2.2,6.4-1.2,9.6Z"/>
      <ellipse class="cls-2" cx="480.6" cy="53.6" rx="5.3" ry="5.3"/>
    </g>
  </g>
</svg>